<?xml version="1.0" encoding="utf-8"?>
<!-- Generator: Adobe Illustrator 21.0.0, SVG Export Plug-In . SVG Version: 6.00 Build 0)  -->
<svg version="1.1" id="Layer_1" xmlns="http://www.w3.org/2000/svg" xmlns:xlink="http://www.w3.org/1999/xlink" x="0px" y="0px"
	 viewBox="0 0 721 445" style="enable-background:new 0 0 721 445;" xml:space="preserve">
<style type="text/css">
	.st0{fill:#079992;}
</style>
<title>CET_logoArtboard 1</title>
<path class="st0" d="M453.5,66.5c91,9.9,95.9,10.5,95.3,11c-0.2,0.2-41.6,4.7-92.1,10.1L365,97.4l-20.3-2.2
	C241.7,84,183.9,77.6,185,77.1c1.8-0.6,173.1-19.8,178-20C365,57.1,405.7,61.3,453.5,66.5z"/>
<path class="st0" d="M497,110.2c0,21.2,0.1,22.4,2,23.5c2.4,1.5,2.7,6.4,0.4,8.7c-1.2,1-2.8,1.5-4.4,1.6c-5.6,0-7.9-8.3-3-11
	c1.9-1,2-2.1,2-23c0-18.9,0.2-22,1.5-22S497,91.1,497,110.2z"/>
<path class="st0" d="M573,125v25h76v13.2c0,11.8-0.3,13.8-2.4,18.3c-2.7,5.7-8,10.9-14.6,13.9c-4.2,1.9-6.6,2.1-31.8,2.4l-27.3,0.3
	l0.3,49.7c0.3,48.5,0.4,49.8,2.5,55c6,14.7,15.1,20.2,33.4,20.2c15-0.1,25.3-2.1,38.3-7.5c1.7-0.8,1.8-0.2,1.5,14.1
	c-0.4,13.8-0.6,15.2-3.1,20.5c-4.8,9.7-13.1,16.1-25.8,19.5c-7.9,2.1-28.8,2.4-39.9,0.4c-34.5-5.9-55.4-27.7-60-62.5
	c-0.9-6.6-1.1-30.8-0.9-87.5l0.3-78.5l2.4-5.7c3-7.5,8.9-16.2,15.2-22.7c9.6-9.9,16.6-13,29.1-13l6.8-0.1V125z"/>
<path class="st0" d="M173.8,148.5c23.6,4.9,40.7,21,43.2,41.2c1.2,9.5,1.1,29-0.1,29.7c-0.6,0.4-3-1.6-5.5-4.4
	c-12.2-13.5-44.8-21.5-67.8-16.6c-20.5,4.3-38.4,20.6-44.8,40.5c-1.5,4.9-2,9.1-2,17c0,31.4,15.4,55.1,41,63
	c22,6.9,56.9,0.6,72.3-13c2.6-2.2,5.1-4,5.8-4c1,0,1.1,3.8,0.8,16.2c-0.4,13.6-0.9,17.2-2.7,22c-5.9,15.2-21.3,26.2-43,30.4
	c-8.5,1.6-28.9,1.8-37.8,0.4c-46.3-7.5-82-41.1-91.9-86.5c-2.4-10.8-2.4-32.9-0.1-44.8c9.8-50.1,45.6-84.1,96.7-91.7
	C147.6,146.6,165.5,146.9,173.8,148.5z"/>
<path class="st0" d="M382.5,191.2c-15.6-3.3-29.6-1.3-39.9,5.7c-13,9-21.5,25.7-21.5,42.4v4.7h17.7c33.2,0,55.4-2.6,62.4-7.2
	c6-4.1,7.3-7,7.3-15.5c-0.1-5.5-0.7-9-2.2-12.3C402.5,200.2,393.3,193.6,382.5,191.2z"/>
<path class="st0" d="M497,330.7l2-3.9c7-13.7,13-33.7,15-50.2c1.5-13,0.6-36.2-2-48.3c-6.5-30.6-22.3-58.5-45.3-79.8
	c-4.5-4.1-8.5-7.5-9-7.5s-0.8-9.9-0.8-22V97l-3.8,0.6c-2.1,0.3-22.7,3-45.7,5.8l-42,5.3l-43-5.3c-23.5-2.9-44.4-5.4-46.1-5.7
	l-3.3-0.6v43.4l-5.6,4.5c-7.1,5.6-15.1,14.3-22.5,24.2C200.4,228.8,206.3,312,259,364.6c44.2,44.5,112.5,56.9,168.3,30.7l9.8-4.7
	c10-5.8,23-14.7,35.9-28C484.1,351.1,491.8,339.8,497,330.7z M455.9,249.7c-4.5,11.7-17.9,21.7-35.6,26.3
	c-16.8,4.4-26.4,5.2-63.5,5.8c-32.5,0.5-35.8,0.7-35.3,2.1c0.3,1,0.8,3,1.1,4.7c1.1,3.4,2.5,6.7,4.2,9.8
	c6.7,12.9,20.1,22.5,37.4,26.9c7.3,1.8,10.2,2,25.3,1.5c24.6-0.8,38.7-4.7,53.7-15c3.8-2.6,7.3-4.7,7.8-4.7s1,3.4,1,8.3
	c-0.1,18.8-3.8,30.4-12.6,39c-5.9,5.7-17.9,11.9-28.5,14.6c-11.2,2.9-29.8,4.5-43,3.8c-32-1.7-61.7-17.3-81.2-42.7
	c-6.4-8.3-15.1-26.3-17.7-36.3c-9.4-36.9-1.3-81.9,19.9-109.9c5.3-7,15.7-17,22.6-21.8c11.6-8,30.8-15,46.3-17
	c9-1.1,27.2-0.4,35,1.5c25.6,6.1,47,22.2,57.7,43.4C460.2,209.2,462.3,232.5,455.9,249.7z"/>
</svg>
